<?xml version="1.0" encoding="UTF-8"?> <svg xmlns="http://www.w3.org/2000/svg" id="Layer_1" data-name="Layer 1" viewBox="0 0 760.64 241.92"><defs><style>.cls-1,.cls-6{fill:#0075a9;}.cls-1,.cls-2,.cls-3{fill-rule:evenodd;}.cls-2,.cls-4{fill:#3cb4e5;}.cls-3,.cls-5{fill:#76bc21;}</style></defs><title>lee-health-foundation-logo</title><path class="cls-1" d="M100.94,237.24c-18.79,2.27-34.25,19.89-34.23,39.13v.44h0v9.42c.93-1.83,1.94-3.64,3-5.39,12.58-20,35.11-26.47,35.11-26.47a11.9,11.9,0,0,0-1.2.47,59,59,0,0,0-10.3,5.37,55.77,55.77,0,0,0-8.4,6.76,58,58,0,0,0-6.68,7.84,65.81,65.81,0,0,0-5.16,8.61,75.91,75.91,0,0,0-3.81,9.07c-.53,1.52-1,3.05-1.46,4.6A41.27,41.27,0,0,0,66.7,305c0,.92,0,1.84,0,2.76.93-1.81,1.93-3.61,3-5.36,12.58-20,35.11-26.46,35.11-26.46a59.78,59.78,0,0,0-8.68,4.1,56,56,0,0,0-16.27,14.16,61.11,61.11,0,0,0-5.61,8.55,94.65,94.65,0,0,0-4.18,9.1,46.91,46.91,0,0,0-3.4,12.56v1.69a68.83,68.83,0,0,1,3.51-6.34c12.58-20,35.11-26.47,35.11-26.47-24.43,9.3-34.67,30.26-38.7,49.59,0,.34,0,.69,0,1,0,4.3,1.1,6,5.57,4.92,5.83-1.36,16.51-6.56,16.54-6.58,13.14-7.67,19.76-21.45,19.76-36.06V242.41c0-6.12-7.46-5.19-7.54-5.17" transform="translate(-16.43 -199.33)"></path><path class="cls-2" d="M19.68,275s22.53,6.51,35.11,26.47a67.38,67.38,0,0,1,3.42,6.16c0-.74,0-1.48,0-2.23a48.5,48.5,0,0,0-3.31-11.84,97.23,97.23,0,0,0-4.19-9.1,61.36,61.36,0,0,0-5.6-8.55,56.52,56.52,0,0,0-7.23-7.68,55.48,55.48,0,0,0-9-6.48,60.9,60.9,0,0,0-8.68-4.11s22.53,6.52,35.11,26.47c1.07,1.7,2,3.46,3,5.24v-3.63a38,38,0,0,0-1.06-6.87c-.43-1.55-.93-3.08-1.46-4.6a76.61,76.61,0,0,0-3.81-9.07,64.73,64.73,0,0,0-5.16-8.61,58,58,0,0,0-6.68-7.84,56.39,56.39,0,0,0-8.4-6.76,58.6,58.6,0,0,0-10.3-5.37,12.5,12.5,0,0,0-1.2-.48s22.53,6.52,35.11,26.48c1.07,1.69,2,3.44,2.95,5.21q0-14.65,0-29.32c0-19.23-15.44-36.86-34.24-39.13-.07,0-7.54-.95-7.54,5.17V306.14c0,14.61,6.62,28.39,19.76,36.06,0,0,10.71,5.21,16.55,6.58,4.46,1,5.6-.62,5.56-4.92q-.07-10-.08-20C54.07,304.74,43.79,284.2,19.68,275" transform="translate(-16.43 -199.33)"></path><path class="cls-2" d="M72,356.91c-4.41-.08-5.81,1.26-4.83,5.62a51.42,51.42,0,0,0,6.42,16.55c7.34,12.29,18.72,18.35,32.48,19.14,14.24.8,28.55.25,42.84.29a1.78,1.78,0,0,0,2-1.37c.48-20.86-17.5-39.66-38.7-40.1-13.41-.28-26.83.09-40.23-.13" transform="translate(-16.43 -199.33)"></path><path class="cls-3" d="M58.31,362.3c.07-4.41-1.26-5.81-5.63-4.82a51.57,51.57,0,0,0-16.54,6.41C23.85,371.23,17.78,382.61,17,396.38c-.81,14.23-.26,28.55-.3,42.83a1.79,1.79,0,0,0,1.38,2c20.86.48,39.66-17.5,40.1-38.71.27-13.41-.09-26.82.13-40.23" transform="translate(-16.43 -199.33)"></path><path class="cls-4" d="M173.31,275.49h8.32v66h41.49v7.68H173.31Z" transform="translate(-16.43 -199.33)"></path><path class="cls-4" d="M236,275.49h53.29v7.58h-45v25.17h40.23v7.58H244.28v25.8h45.49v7.58H236Z" transform="translate(-16.43 -199.33)"></path><path class="cls-4" d="M303.88,275.49h53.28v7.58h-45v25.17h40.22v7.58H312.2v25.8h45.49v7.58H303.88Z" transform="translate(-16.43 -199.33)"></path><path class="cls-5" d="M389.59,275.49h8.32v32.75h42.54V275.49h8.32V349.2h-8.32V316H397.91V349.2h-8.32Z" transform="translate(-16.43 -199.33)"></path><path class="cls-5" d="M462.83,275.49h53.29v7.58h-45v25.17h40.23v7.58H471.15v25.8h45.49v7.58H462.83Z" transform="translate(-16.43 -199.33)"></path><path class="cls-5" d="M555.39,275h7.79l33.59,74.24h-8.95l-8.63-19.48H539.07l-8.74,19.48H521.8Zm20.53,47.28-16.74-37.59-16.85,37.59Z" transform="translate(-16.43 -199.33)"></path><path class="cls-5" d="M605.33,275.49h8.32v66h41.49v7.68H605.33Z" transform="translate(-16.43 -199.33)"></path><path class="cls-5" d="M674.3,283.18H649.55v-7.69h57.92v7.69H682.72v66H674.3Z" transform="translate(-16.43 -199.33)"></path><path class="cls-5" d="M717.89,275.49h8.32v32.75h42.54V275.49h8.32V349.2h-8.32V316H726.21V349.2h-8.32Z" transform="translate(-16.43 -199.33)"></path><path class="cls-6" d="M175,370.76h30.63v4.44H179.8v15.23h23.08v4.38H179.8v18.57H175Z" transform="translate(-16.43 -199.33)"></path><path class="cls-6" d="M208.91,397.79v-.12a16.41,16.41,0,0,1,32.82-.12v.12a16.34,16.34,0,0,1-16.5,16.44A16.12,16.12,0,0,1,208.91,397.79Zm28,0v-.12c0-6.76-5-12.3-11.69-12.3-6.82,0-11.51,5.54-11.51,12.18v.12c0,6.76,5,12.24,11.63,12.24C232.17,409.91,236.92,404.43,236.92,397.79Z" transform="translate(-16.43 -199.33)"></path><path class="cls-6" d="M246.42,401.45V381.9h4.69v18.39c0,5.85,3.17,9.5,8.71,9.5,5.36,0,9.44-4,9.44-9.86v-18h4.63v31.48h-4.63V407.9a12,12,0,0,1-10.78,6.15C250.87,414.05,246.42,408.94,246.42,401.45Z" transform="translate(-16.43 -199.33)"></path><path class="cls-6" d="M281.14,381.9h4.68v5.48a11.94,11.94,0,0,1,10.78-6.15c7.61,0,12.06,5.12,12.06,12.61v19.54H304V395c0-5.84-3.17-9.5-8.71-9.5s-9.44,4-9.44,9.87v18h-4.68Z" transform="translate(-16.43 -199.33)"></path><path class="cls-6" d="M314.75,397.73v-.12c0-10.29,7.49-16.38,15-16.38,5.85,0,9.62,3.17,12.06,6.7v-19h4.69v44.45h-4.69v-6.33c-2.56,3.77-6.27,7-12.06,7C322.24,414.05,314.75,408.08,314.75,397.73Zm27.28-.06v-.12c0-7.24-5.54-12.12-11.39-12.12-6.08,0-11.08,4.51-11.08,12.12v.12c0,7.43,5.12,12.18,11.08,12.18S342,404.92,342,397.67Z" transform="translate(-16.43 -199.33)"></path><path class="cls-6" d="M352.57,404.25v-.12c0-6.64,5.48-10.17,13.46-10.17a33.51,33.51,0,0,1,9.68,1.34v-1.1c0-5.66-3.47-8.58-9.38-8.58a21.92,21.92,0,0,0-9.56,2.31l-1.4-3.84a26,26,0,0,1,11.45-2.62c4.44,0,7.85,1.16,10.17,3.48,2.13,2.13,3.22,5.17,3.22,9.19v19.24h-4.5v-4.75a13.78,13.78,0,0,1-11.39,5.42C358.48,414.05,352.57,410.7,352.57,404.25Zm23.2-2.44v-3a32.82,32.82,0,0,0-9.26-1.34c-5.9,0-9.19,2.56-9.19,6.51v.12c0,4,3.65,6.28,7.91,6.28C371,410.34,375.77,406.81,375.77,401.81Z" transform="translate(-16.43 -199.33)"></path><path class="cls-6" d="M389.78,405V386h-4.39V381.9h4.39v-9.5h4.69v9.5h10V386h-10v18.39c0,3.84,2.13,5.24,5.29,5.24a9.87,9.87,0,0,0,4.57-1.1v4a11.81,11.81,0,0,1-5.66,1.34C393.61,413.93,389.78,411.43,389.78,405Z" transform="translate(-16.43 -199.33)"></path><path class="cls-6" d="M410.79,369.84h5.36V375h-5.36Zm.3,12.06h4.69v31.48h-4.69Z" transform="translate(-16.43 -199.33)"></path><path class="cls-6" d="M422.66,397.79v-.12a16.41,16.41,0,0,1,32.82-.12v.12A16.34,16.34,0,0,1,439,414.11,16.12,16.12,0,0,1,422.66,397.79Zm28,0v-.12c0-6.76-5.05-12.3-11.69-12.3-6.82,0-11.51,5.54-11.51,12.18v.12c0,6.76,5,12.24,11.63,12.24C445.92,409.91,450.67,404.43,450.67,397.79Z" transform="translate(-16.43 -199.33)"></path><path class="cls-6" d="M461.88,381.9h4.69v5.48a11.92,11.92,0,0,1,10.77-6.15c7.62,0,12.06,5.12,12.06,12.61v19.54h-4.69V395c0-5.84-3.16-9.5-8.7-9.5s-9.44,4-9.44,9.87v18h-4.69Z" transform="translate(-16.43 -199.33)"></path></svg> 